<svg width="96" height="96" viewBox="0 0 96 96" fill="none" xmlns="http://www.w3.org/2000/svg">
<path d="M76.4 51.6V51.2662L76.0716 51.2065C71.8544 50.4397 68.4 46.5993 68.4 42C68.4 36.6209 72.6209 32.4 78 32.4C83.3791 32.4 87.6 36.6209 87.6 42C87.6 46.5993 84.1456 50.4397 79.9284 51.2065L79.6 51.2662V51.6V62C79.6 76.1791 68.1791 87.6 54 87.6C39.8209 87.6 28.4 76.1791 28.4 62V54.8V54.6059L28.2475 54.4858L15.0475 44.0858L15.0415 44.081L15.0353 44.0765C10.7502 40.9601 8.4 35.8868 8.4 30.4V10C8.4 9.4909 8.56795 9.09773 8.83284 8.83284C9.09773 8.56795 9.4909 8.4 10 8.4H18C18.5091 8.4 18.9023 8.56795 19.1672 8.83284C19.432 9.09773 19.6 9.4909 19.6 10C19.6 10.5091 19.432 10.9023 19.1672 11.1672C18.9023 11.432 18.5091 11.6 18 11.6H12H11.6V12V30.4C11.6 34.5306 13.662 38.6357 16.9366 41.501L16.945 41.5084L16.9537 41.5152L29.7537 51.5152L30 51.7076L30.2463 51.5152L43.0431 41.5177C46.3471 39.038 48.4 34.9179 48.4 30.4V12V11.6H48H42C41.4909 11.6 41.0977 11.432 40.8328 11.1672C40.568 10.9023 40.4 10.5091 40.4 10C40.4 9.4909 40.568 9.09773 40.8328 8.83284C41.0977 8.56795 41.4909 8.4 42 8.4H50C50.5091 8.4 50.9023 8.56795 51.1672 8.83284C51.432 9.09773 51.6 9.4909 51.6 10V30.4C51.6 35.8715 49.2607 40.5596 44.9495 44.0881L31.7525 54.4858L31.6 54.6059V54.8V62C31.6 74.2209 41.7791 84.4 54 84.4C66.2209 84.4 76.4 74.2209 76.4 62V51.6ZM71.6 42C71.6 45.4209 74.5791 48.4 78 48.4C81.4209 48.4 84.4 45.4209 84.4 42C84.4 38.5791 81.4209 35.6 78 35.6C74.5791 35.6 71.6 38.5791 71.6 42Z" fill="#FBDE92" stroke="#FBDE92" stroke-width="0.8"/>
<path d="M76.25 51.6V51.3914L76.0447 51.354C71.759 50.5748 68.25 46.6745 68.25 42C68.25 36.5381 72.5381 32.25 78 32.25C83.4619 32.25 87.75 36.5381 87.75 42C87.75 46.6745 84.241 50.5748 79.9553 51.354L79.75 51.3914V51.6V62C79.75 76.2619 68.2619 87.75 54 87.75C39.7381 87.75 28.25 76.2619 28.25 62V54.8V54.6787L28.1547 54.6036L14.9547 44.2036L14.9548 44.2035L14.947 44.1978C10.6189 41.05 8.25 35.9293 8.25 30.4V10C8.25 9.45681 8.42997 9.02358 8.72678 8.72678C9.02358 8.42997 9.45681 8.25 10 8.25H18C18.5432 8.25 18.9764 8.42997 19.2732 8.72678C19.57 9.02358 19.75 9.45681 19.75 10C19.75 10.5432 19.57 10.9764 19.2732 11.2732C18.9764 11.57 18.5432 11.75 18 11.75H12H11.75V12V30.4C11.75 34.4816 13.7887 38.5473 17.0354 41.3881L17.0351 41.3884L17.0461 41.397L29.8461 51.397L30 51.5173L30.1539 51.397L42.95 41.4C42.9506 41.3995 42.9513 41.399 42.9519 41.3985C46.217 38.9488 48.25 34.8737 48.25 30.4V12V11.75H48H42C41.4568 11.75 41.0236 11.57 40.7268 11.2732C40.43 10.9764 40.25 10.5432 40.25 10C40.25 9.45681 40.43 9.02358 40.7268 8.72678C41.0236 8.42997 41.4568 8.25 42 8.25H50C50.5432 8.25 50.9764 8.42997 51.2732 8.72678C51.57 9.02358 51.75 9.45681 51.75 10V30.4C51.75 35.9197 49.3879 40.6498 45.0434 44.2051C45.0428 44.2056 45.0423 44.206 45.0417 44.2065L31.8453 54.6036L31.75 54.6787V54.8V62C31.75 74.1381 41.8619 84.25 54 84.25C66.1381 84.25 76.25 74.1381 76.25 62V51.6ZM71.75 42C71.75 45.3381 74.6619 48.25 78 48.25C81.3381 48.25 84.25 45.3381 84.25 42C84.25 38.6619 81.3381 35.75 78 35.75C74.6619 35.75 71.75 38.6619 71.75 42Z" fill="#FBDE92" stroke="#EEAD44" stroke-width="0.5"/>
</svg>
