<svg width="96" height="96" viewBox="0 0 96 96" fill="none" xmlns="http://www.w3.org/2000/svg">
<path d="M86.2839 14.1214L86.2861 14.1219C87.1136 14.2764 87.7502 15.0829 87.75 16.0644V73.0007V73.001C87.7509 73.5892 87.5174 74.1417 87.1219 74.5127L87.1191 74.5154C86.7299 74.892 86.2143 75.0456 85.7181 74.9441L85.7156 74.9436C83.0211 74.4202 80.2918 74.1475 77.5564 74.1287H77.5549C67.3171 74.1189 57.3203 76.7007 49.0113 83.3848L49.0108 83.3852C48.7144 83.6248 48.3605 83.7509 48.0006 83.75H47.9993C47.6395 83.7509 47.2856 83.6248 46.9892 83.3852L46.9887 83.3848C38.6797 76.7007 28.6829 74.1189 18.4451 74.1287L18.4436 74.1287C15.7081 74.1475 12.9786 74.4202 10.2844 74.9436L10.2828 74.9439C9.78599 75.0437 9.27066 74.8901 8.8803 74.5148L8.87803 74.5127C8.48242 74.1417 8.24912 73.5893 8.25 73.001V73.0007L8.25 16.0645L8.25 16.0644C8.24978 15.0829 8.88641 14.2764 9.71386 14.1219L9.71386 14.1219L9.71578 14.1215C12.5988 13.5598 15.5194 13.2686 18.4462 13.2507C28.9373 13.2377 39.1884 16.7508 47.8487 23.3314L48.0005 23.4467L48.1519 23.3309C59.281 14.8175 72.9793 11.5113 86.2839 14.1214ZM46.832 83.5796C47.1711 83.8537 47.5803 84.0011 48 84C48.4197 84.0011 48.8288 83.8537 49.168 83.5796C57.4221 76.9397 67.3589 74.3689 77.5547 74.3787L46.832 83.5796ZM45.8583 77.8794L46.25 78.1489V77.6734V27.0238V26.9007L46.1525 26.8257C38.0221 20.5671 28.3644 17.1787 18.4451 17.1882L18.4443 17.1882C16.2743 17.1972 14.1078 17.3748 11.9603 17.7201L11.75 17.7539V17.9669L11.75 70.4266V70.7163L12.0366 70.6739C14.1615 70.3598 16.3026 70.1985 18.4462 70.1912C28.1687 70.1792 37.6463 72.2287 45.8583 77.8794ZM83.9634 70.6739L84.25 70.7163V70.4266V17.9669V17.7539L84.0397 17.7201C81.8921 17.3748 79.7257 17.1972 77.5557 17.1882L77.5549 17.1882C67.6356 17.1787 57.9779 20.5671 49.8475 26.8257L49.75 26.9007V27.0238V77.6734V78.1489L50.1417 77.8794C58.3537 72.2287 67.8313 70.1792 77.5538 70.1912C79.6974 70.1985 81.8385 70.3598 83.9634 70.6739Z" fill="#FDBB96" stroke="#EE7444" stroke-width="0.5"/>
<line x1="21" y1="29" x2="30" y2="29" stroke="#FDBB96" stroke-width="2" stroke-linecap="round"/>
<line x1="21" y1="36" x2="34" y2="36" stroke="#FDBB96" stroke-width="2" stroke-linecap="round"/>
<line x1="21" y1="43" x2="34" y2="43" stroke="#FDBB96" stroke-width="2" stroke-linecap="round"/>
</svg>
