<svg width="34" height="28" viewBox="0 0 34 28" fill="none" xmlns="http://www.w3.org/2000/svg">
<path d="M23.1419 14.7071C23.5324 14.3166 23.5324 13.6834 23.1419 13.2929L16.778 6.92893C16.3874 6.53841 15.7543 6.53841 15.3637 6.92893C14.9732 7.31946 14.9732 7.95262 15.3637 8.34315L21.0206 14L15.3637 19.6569C14.9732 20.0474 14.9732 20.6805 15.3637 21.0711C15.7543 21.4616 16.3874 21.4616 16.778 21.0711L23.1419 14.7071ZM7.43481 15L22.4348 15L22.4348 13L7.43481 13L7.43481 15Z" fill="#3079EC"/>
<path d="M3.08716 13C2.53487 13 2.08716 13.4477 2.08716 14C2.08716 14.5523 2.53487 15 3.08716 15L3.08716 13ZM3.08716 15H5.86977V13H3.08716L3.08716 15Z" fill="#3079EC"/>
</svg>
